<svg width="135" height="73" viewBox="0 0 135 73" fill="none" xmlns="http://www.w3.org/2000/svg">
<path fill-rule="evenodd" clip-rule="evenodd" d="M3.25975 36.0099C5.05709 36.0099 6.5195 37.4712 6.5195 39.2692C6.5195 41.0721 5.05709 42.5334 3.25975 42.5334C1.45909 42.5334 0 41.0721 0 39.2692C0 37.4712 1.45909 36.0099 3.25975 36.0099ZM8.07642 47.2092C11.3627 47.2092 14.0305 49.8764 14.0305 53.1622C14.0305 56.4497 11.3627 59.1152 8.07642 59.1152C4.79014 59.1152 2.12729 56.4497 2.12729 53.1622C2.12729 49.8781 4.79014 47.2092 8.07642 47.2092ZM21.1171 58.8366C24.4034 58.8366 27.0662 61.5021 27.0662 64.7929C27.0662 68.0787 24.4034 70.7459 21.1171 70.7459C17.8308 70.7459 15.163 68.0787 15.163 64.7929C15.163 61.5021 17.8308 58.8366 21.1171 58.8366ZM39.6725 64.209C42.0982 64.209 44.0663 66.1779 44.0663 68.6045C44.0663 71.0312 42.0982 73 39.6725 73C37.2467 73 35.2786 71.0312 35.2786 68.6045C35.2786 66.1795 37.2467 64.209 39.6725 64.209ZM57.112 51.4621C60.3982 51.4621 63.0661 54.1309 63.0661 57.4184C63.0661 60.7059 60.3999 63.3714 57.112 63.3714C53.829 63.3714 51.1628 60.7059 51.1628 57.4184C51.1628 54.1309 53.829 51.4621 57.112 51.4621ZM49.1665 2.19111C51.9919 2.19111 54.2767 4.47843 54.2767 7.30149C54.2767 10.1229 51.9919 12.4119 49.1665 12.4119C46.3495 12.4119 44.0613 10.1246 44.0613 7.30149C44.0613 4.47843 46.3511 2.19111 49.1665 2.19111ZM30.0457 0C32.3123 0 34.1544 1.84113 34.1544 4.1102C34.1544 6.38093 32.314 8.22372 30.0457 8.22372C27.7792 8.22372 25.9371 6.37927 25.9371 4.1102C25.9371 1.84113 27.7775 0 30.0457 0ZM13.3225 9.07296C15.1232 9.07296 16.5823 10.5343 16.5823 12.3323C16.5823 14.1352 15.1232 15.5965 13.3225 15.5965C11.5202 15.5965 10.0628 14.1352 10.0628 12.3323C10.0628 10.5343 11.5202 9.07296 13.3225 9.07296ZM61.927 13.5182C65.3807 13.5182 68.1845 16.3214 68.1845 19.7781C68.1845 23.2347 65.3807 26.0396 61.927 26.0396C58.4682 26.0396 55.6661 23.2347 55.6661 19.7781C55.6661 16.3214 58.4682 13.5182 61.927 13.5182ZM4.10868 23.6759C5.51969 23.6759 6.66209 24.8188 6.66209 26.227C6.66209 27.6352 5.51969 28.7764 4.10868 28.7764C2.70264 28.7764 1.56024 27.6352 1.56024 26.227C1.56024 24.8188 2.70264 23.6759 4.10868 23.6759Z" fill="#8454F5"/>
<path d="M124.376 37.3051C124.152 36.5404 123.705 35.9184 123.037 35.4374C122.368 34.958 121.591 34.7192 120.707 34.7192C119.749 34.7192 118.906 34.9895 118.185 35.527C117.732 35.862 117.311 36.4575 116.925 37.3051H124.376ZM127.835 40.017H116.771C116.933 40.9906 117.364 41.7669 118.057 42.3425C118.747 42.918 119.631 43.2083 120.707 43.2083C121.994 43.2083 123.101 42.7555 124.025 41.8565L126.93 43.2216C126.205 44.245 125.34 45.0046 124.328 45.4989C123.318 45.9915 122.123 46.2354 120.733 46.2354C118.58 46.2354 116.827 45.557 115.479 44.2002C114.121 42.8401 113.445 41.1383 113.445 39.0948C113.445 36.9999 114.121 35.2649 115.471 33.8799C116.824 32.4982 118.512 31.8049 120.546 31.8049C122.703 31.8049 124.461 32.4966 125.819 33.8799C127.168 35.2649 127.848 37.0911 127.848 39.3618L127.835 40.017ZM106.761 27.1025H110.193V32.1549H112.233V35.1222H110.193V45.8804H106.761V35.1222H104.995V32.1549H106.761V27.1025ZM95.8161 34.9829C94.7483 34.9829 93.8613 35.3561 93.1582 36.1108C92.4502 36.8655 92.0987 37.8292 92.0987 39.0035C92.0987 40.1945 92.4552 41.1665 93.1748 41.9328C93.8911 42.7007 94.7782 43.0822 95.8294 43.0822C96.9154 43.0822 97.8108 42.7041 98.527 41.951C99.2433 41.2013 99.5998 40.2144 99.5998 38.9936C99.5998 37.8027 99.2433 36.8307 98.527 36.0975C97.8108 35.3528 96.9104 34.9829 95.8161 34.9829ZM99.4373 32.1549H102.87V45.8804H99.4373V44.4291C98.7658 45.071 98.0877 45.5271 97.4112 45.8141C96.7347 46.0911 96.0002 46.2337 95.2093 46.2337C93.4335 46.2337 91.9047 45.5437 90.6081 44.172C89.3115 42.7986 88.6665 41.0885 88.6665 39.0434C88.6665 36.9269 89.29 35.1902 90.5435 33.8351C91.7953 32.4833 93.3207 31.8049 95.1081 31.8049C95.9338 31.8049 96.7032 31.9608 97.4327 32.271C98.154 32.5828 98.8205 33.0506 99.4357 33.6742V32.1549H99.4373ZM73.3643 32.1549H76.8661L80.3364 40.2542L83.7852 32.1549H87.2821L81.4374 45.8804H79.209L73.3643 32.1549ZM64.8004 35.0459C63.7276 35.0459 62.8356 35.4191 62.1293 36.1622C61.418 36.9086 61.0664 37.8591 61.0664 39.0185C61.0664 40.2144 61.413 41.1797 62.121 41.9195C62.824 42.6609 63.7077 43.0325 64.7838 43.0325C65.8599 43.0325 66.7569 42.6593 67.4732 41.9062C68.1845 41.1565 68.546 40.1961 68.546 39.0185C68.546 37.8425 68.1945 36.8871 67.4914 36.1506C66.7868 35.4142 65.8897 35.0459 64.8004 35.0459ZM64.744 31.8032C66.0406 31.8032 67.261 32.1283 68.4001 32.7736C69.5375 33.4171 70.4262 34.3012 71.0662 35.4092C71.7079 36.5188 72.0246 37.7164 72.0246 39.0019C72.0246 40.3006 71.6996 41.5115 71.0629 42.6377C70.4163 43.7656 69.5425 44.6447 68.4316 45.2816C67.3207 45.9136 66.0987 46.2337 64.7623 46.2337C62.7941 46.2337 61.1162 45.5321 59.7218 44.1322C58.334 42.7339 57.6343 41.0304 57.6343 39.0317C57.6343 36.8871 58.4251 35.1007 59.9937 33.6709C61.3732 32.4286 62.955 31.8032 64.744 31.8032ZM42.8045 32.1549H46.2318V33.5598C47.0177 32.898 47.7207 32.4435 48.3624 32.1897C48.9908 31.9309 49.6407 31.8032 50.304 31.8032C51.6702 31.8032 52.8209 32.2809 53.7743 33.2297C54.5735 34.0358 54.9697 35.2301 54.9697 36.8141V45.8804H51.5657V39.8677C51.5657 38.2256 51.4961 37.1359 51.3452 36.5968C51.201 36.0611 50.9407 35.6514 50.5759 35.3677C50.2111 35.0857 49.7634 34.9464 49.2229 34.9464C48.5199 34.9464 47.9263 35.177 47.4256 35.648C46.9248 36.1108 46.5733 36.7577 46.3843 37.5821C46.2832 38.0133 46.2301 38.9405 46.2301 40.3703V45.8804H42.8029V32.1549H42.8045ZM27.3033 32.1549H30.7355V33.5598C31.5181 32.898 32.2245 32.4435 32.8628 32.1897C33.4962 31.9309 34.1461 31.8032 34.8094 31.8032C36.1723 31.8032 37.3263 32.2809 38.2764 33.2297C39.0756 34.0358 39.4718 35.2301 39.4718 36.8141V45.8804H36.0712V39.8677C36.0712 38.2256 35.9965 37.1359 35.8473 36.5968C35.7031 36.0611 35.4477 35.6514 35.078 35.3677C34.7132 35.0857 34.2655 34.9464 33.7283 34.9464C33.0253 34.9464 32.4284 35.177 31.926 35.648C31.4302 36.1108 31.0787 36.7577 30.8847 37.5821C30.7886 38.0133 30.7355 38.9405 30.7355 40.3703V45.8804H27.3033V32.1549ZM20.2068 27.3248H23.7086V45.8804H20.2068V27.3248Z" fill="#324857"/>
<path d="M75.9649 52.0674C76.0378 51.9762 76.126 51.9305 76.2294 51.9305C76.3145 51.9305 76.3905 51.964 76.4574 52.0309C76.5243 52.0978 76.5578 52.18 76.5578 52.2773C76.5578 52.3685 76.5304 52.4446 76.4757 52.5054L74.2591 55.3068V58.0625C74.2591 58.1842 74.2226 58.2785 74.1497 58.3454C74.0828 58.4123 73.9946 58.4458 73.8851 58.4458C73.7757 58.4458 73.6845 58.4123 73.6115 58.3454C73.5446 58.2785 73.5111 58.1842 73.5111 58.0625V55.2977L71.2946 52.5054C71.2338 52.4385 71.2034 52.3625 71.2034 52.2773C71.2034 52.18 71.2368 52.0978 71.3037 52.0309C71.3767 51.964 71.4588 51.9305 71.55 51.9305C71.6534 51.9305 71.7415 51.9762 71.8145 52.0674L73.8942 54.7228L75.9649 52.0674Z" fill="#8454F5"/>
<path d="M78.4588 58.464C78.0392 58.464 77.6683 58.3698 77.346 58.1812C77.0298 57.9926 76.7835 57.7249 76.6071 57.3782C76.4369 57.0253 76.3517 56.6178 76.3517 56.1554C76.3517 55.6931 76.4369 55.2885 76.6071 54.9418C76.7835 54.589 77.0298 54.3183 77.346 54.1297C77.6683 53.9411 78.0392 53.8468 78.4588 53.8468C78.8784 53.8468 79.2494 53.9411 79.5717 54.1297C79.894 54.3183 80.1403 54.589 80.3105 54.9418C80.4869 55.2885 80.5751 55.6931 80.5751 56.1554C80.5751 56.6178 80.4869 57.0253 80.3105 57.3782C80.1403 57.7249 79.894 57.9926 79.5717 58.1812C79.2494 58.3698 78.8784 58.464 78.4588 58.464ZM78.4588 57.8527C78.8967 57.8527 79.2311 57.7097 79.4622 57.4238C79.6994 57.1318 79.818 56.709 79.818 56.1554C79.818 55.614 79.6994 55.1973 79.4622 54.9053C79.2251 54.6072 78.8906 54.4582 78.4588 54.4582C78.0271 54.4582 77.6926 54.6072 77.4555 54.9053C77.2183 55.1973 77.0997 55.614 77.0997 56.1554C77.0997 56.7029 77.2153 57.1227 77.4463 57.4147C77.6835 57.7067 78.021 57.8527 78.4588 57.8527Z" fill="#8454F5"/>
<path d="M85.0509 53.865C85.1665 53.865 85.2546 53.8985 85.3154 53.9654C85.3823 54.0323 85.4158 54.1205 85.4158 54.23V58.0899C85.4158 58.1933 85.3823 58.2785 85.3154 58.3454C85.2546 58.4123 85.1665 58.4458 85.0509 58.4458C84.9415 58.4458 84.8533 58.4154 84.7864 58.3545C84.7256 58.2876 84.6952 58.2025 84.6952 58.099V57.6428C84.5553 57.9105 84.3577 58.1143 84.1023 58.2542C83.8529 58.3941 83.5702 58.464 83.254 58.464C82.7249 58.464 82.3266 58.318 82.059 58.026C81.7915 57.728 81.6577 57.29 81.6577 56.712V54.23C81.6577 54.1205 81.6911 54.0323 81.758 53.9654C81.8249 53.8985 81.9161 53.865 82.0317 53.865C82.1472 53.865 82.2354 53.8985 82.2962 53.9654C82.3631 54.0323 82.3965 54.1205 82.3965 54.23V56.6938C82.3965 57.0892 82.4756 57.3812 82.6337 57.5698C82.7918 57.7523 83.0411 57.8435 83.3817 57.8435C83.7708 57.8435 84.084 57.7188 84.3212 57.4694C84.5583 57.2139 84.6769 56.8793 84.6769 56.4657V54.23C84.6769 54.1205 84.7104 54.0323 84.7773 53.9654C84.8442 53.8985 84.9354 53.865 85.0509 53.865Z" fill="#8454F5"/>
<path d="M88.9873 53.865C89.2427 53.8468 89.3704 53.9502 89.3704 54.1753C89.3704 54.2726 89.3431 54.3517 89.2883 54.4125C89.2336 54.4673 89.1394 54.5008 89.0056 54.5129L88.7319 54.5403C88.3245 54.5768 88.0204 54.7228 87.8198 54.9783C87.6252 55.2277 87.5279 55.5228 87.5279 55.8634V58.0808C87.5279 58.2025 87.4944 58.2937 87.4275 58.3545C87.3606 58.4154 87.2725 58.4458 87.163 58.4458C87.0535 58.4458 86.9623 58.4154 86.8894 58.3545C86.8225 58.2876 86.789 58.1964 86.789 58.0808V54.23C86.789 54.1145 86.8255 54.0263 86.8985 53.9654C86.9714 53.8985 87.0596 53.865 87.163 53.865C87.2603 53.865 87.3424 53.8985 87.4093 53.9654C87.4762 54.0263 87.5096 54.1114 87.5096 54.2209V54.7319C87.6373 54.4643 87.8167 54.2605 88.0478 54.1205C88.285 53.9806 88.5556 53.8985 88.8596 53.8742L88.9873 53.865Z" fill="#8454F5"/>
<path d="M94.5182 58.4732C94.0622 58.4732 93.6243 58.4063 93.2047 58.2724C92.7912 58.1325 92.4598 57.947 92.2105 57.7158C92.1192 57.6306 92.0736 57.5242 92.0736 57.3964C92.0736 57.3113 92.098 57.2383 92.1466 57.1774C92.1953 57.1105 92.253 57.077 92.3199 57.077C92.399 57.077 92.4841 57.1105 92.5753 57.1774C93.1409 57.6154 93.7855 57.8344 94.5091 57.8344C95.0321 57.8344 95.4334 57.734 95.7132 57.5333C95.9929 57.3325 96.1328 57.0466 96.1328 56.6755C96.1328 56.4626 96.0659 56.2923 95.9321 56.1645C95.7983 56.0307 95.622 55.9243 95.403 55.8452C95.1841 55.7661 94.8892 55.684 94.5182 55.5988C94.0196 55.4832 93.6091 55.3615 93.2868 55.2338C92.9706 55.106 92.7122 54.9235 92.5115 54.6863C92.3169 54.449 92.2196 54.1388 92.2196 53.7555C92.2196 53.3905 92.3169 53.0681 92.5115 52.7883C92.7122 52.5024 92.9888 52.2834 93.3415 52.1313C93.7003 51.9731 94.1078 51.894 94.5638 51.894C94.9895 51.894 95.3848 51.961 95.7497 52.0948C96.1206 52.2225 96.4307 52.4081 96.6801 52.6514C96.7774 52.7488 96.826 52.8552 96.826 52.9708C96.826 53.056 96.8017 53.132 96.753 53.1989C96.7044 53.2598 96.6466 53.2902 96.5797 53.2902C96.5128 53.2902 96.4247 53.2567 96.3152 53.1898C96.0172 52.9465 95.7405 52.7761 95.4851 52.6788C95.2297 52.5815 94.9226 52.5328 94.5638 52.5328C94.0591 52.5328 93.6669 52.6393 93.3872 52.8522C93.1074 53.059 92.9676 53.351 92.9676 53.7282C92.9676 54.0506 93.0892 54.2939 93.3324 54.4582C93.5817 54.6163 93.9618 54.7563 94.4726 54.8779C95.026 55.0118 95.4608 55.1365 95.777 55.252C96.0932 55.3615 96.3547 55.5288 96.5615 55.7539C96.7743 55.979 96.8807 56.2801 96.8807 56.6573C96.8807 57.0162 96.7804 57.3325 96.5797 57.6063C96.3851 57.88 96.1084 58.093 95.7497 58.245C95.3909 58.3971 94.9804 58.4732 94.5182 58.4732Z" fill="#8454F5"/>
<path d="M99.8287 58.464C99.4091 58.464 99.0382 58.3698 98.7159 58.1812C98.3997 57.9926 98.1534 57.7249 97.977 57.3782C97.8068 57.0253 97.7216 56.6178 97.7216 56.1554C97.7216 55.6931 97.8068 55.2885 97.977 54.9418C98.1534 54.589 98.3997 54.3183 98.7159 54.1297C99.0382 53.9411 99.4091 53.8468 99.8287 53.8468C100.248 53.8468 100.619 53.9411 100.942 54.1297C101.264 54.3183 101.51 54.589 101.68 54.9418C101.857 55.2885 101.945 55.6931 101.945 56.1554C101.945 56.6178 101.857 57.0253 101.68 57.3782C101.51 57.7249 101.264 57.9926 100.942 58.1812C100.619 58.3698 100.248 58.464 99.8287 58.464ZM99.8287 57.8527C100.267 57.8527 100.601 57.7097 100.832 57.4238C101.069 57.1318 101.188 56.709 101.188 56.1554C101.188 55.614 101.069 55.1973 100.832 54.9053C100.595 54.6072 100.26 54.4582 99.8287 54.4582C99.397 54.4582 99.0625 54.6072 98.8254 54.9053C98.5882 55.1973 98.4696 55.614 98.4696 56.1554C98.4696 56.7029 98.5851 57.1227 98.8162 57.4147C99.0534 57.7067 99.3909 57.8527 99.8287 57.8527Z" fill="#8454F5"/>
<path d="M103.42 58.4458C103.31 58.4458 103.219 58.4154 103.146 58.3545C103.079 58.2876 103.046 58.1964 103.046 58.0808V52.2864C103.046 52.1708 103.079 52.0826 103.146 52.0218C103.219 51.9549 103.31 51.9214 103.42 51.9214C103.523 51.9214 103.608 51.9549 103.675 52.0218C103.748 52.0826 103.785 52.1708 103.785 52.2864V58.0808C103.785 58.1964 103.748 58.2876 103.675 58.3545C103.608 58.4154 103.523 58.4458 103.42 58.4458Z" fill="#8454F5"/>
<path d="M108.541 53.865C108.656 53.865 108.745 53.8985 108.805 53.9654C108.872 54.0323 108.906 54.1205 108.906 54.23V58.0899C108.906 58.1933 108.872 58.2785 108.805 58.3454C108.745 58.4123 108.656 58.4458 108.541 58.4458C108.431 58.4458 108.343 58.4154 108.276 58.3545C108.216 58.2876 108.185 58.2025 108.185 58.099V57.6428C108.045 57.9105 107.848 58.1143 107.592 58.2542C107.343 58.3941 107.06 58.464 106.744 58.464C106.215 58.464 105.817 58.318 105.549 58.026C105.281 57.728 105.148 57.29 105.148 56.712V54.23C105.148 54.1205 105.181 54.0323 105.248 53.9654C105.315 53.8985 105.406 53.865 105.522 53.865C105.637 53.865 105.725 53.8985 105.786 53.9654C105.853 54.0323 105.886 54.1205 105.886 54.23V56.6938C105.886 57.0892 105.966 57.3812 106.124 57.5698C106.282 57.7523 106.531 57.8435 106.872 57.8435C107.261 57.8435 107.574 57.7188 107.811 57.4694C108.048 57.2139 108.167 56.8793 108.167 56.4657V54.23C108.167 54.1205 108.2 54.0323 108.267 53.9654C108.334 53.8985 108.425 53.865 108.541 53.865Z" fill="#8454F5"/>
<path d="M112.331 57.8618C112.544 57.88 112.651 57.9774 112.651 58.1538C112.651 58.2572 112.611 58.3363 112.532 58.391C112.459 58.4397 112.347 58.458 112.195 58.4458L111.948 58.4275C111.462 58.391 111.103 58.245 110.872 57.9895C110.641 57.734 110.525 57.3478 110.525 56.8307V54.5403H109.914C109.811 54.5403 109.729 54.516 109.668 54.4673C109.613 54.4125 109.586 54.3426 109.586 54.2574C109.586 54.1662 109.613 54.0932 109.668 54.0384C109.729 53.9837 109.811 53.9563 109.914 53.9563H110.525V52.9252C110.525 52.8096 110.559 52.7214 110.626 52.6605C110.692 52.5936 110.784 52.5602 110.899 52.5602C111.009 52.5602 111.097 52.5936 111.164 52.6605C111.231 52.7214 111.264 52.8096 111.264 52.9252V53.9563H112.277C112.374 53.9563 112.45 53.9837 112.505 54.0384C112.565 54.0932 112.596 54.1662 112.596 54.2574C112.596 54.3426 112.565 54.4125 112.505 54.4673C112.45 54.516 112.374 54.5403 112.277 54.5403H111.264V56.8672C111.264 57.2018 111.331 57.4451 111.465 57.5972C111.605 57.7432 111.811 57.8253 112.085 57.8435L112.331 57.8618Z" fill="#8454F5"/>
<path d="M113.753 58.4458C113.643 58.4458 113.552 58.4154 113.479 58.3545C113.412 58.2876 113.379 58.1964 113.379 58.0808V54.23C113.379 54.1145 113.412 54.0263 113.479 53.9654C113.552 53.8985 113.643 53.865 113.753 53.865C113.862 53.865 113.951 53.8985 114.017 53.9654C114.084 54.0263 114.118 54.1145 114.118 54.23V58.0808C114.118 58.2025 114.084 58.2937 114.017 58.3545C113.951 58.4154 113.862 58.4458 113.753 58.4458ZM113.753 52.9069C113.607 52.9069 113.488 52.8643 113.397 52.7792C113.306 52.694 113.26 52.5815 113.26 52.4415C113.26 52.3077 113.306 52.1982 113.397 52.113C113.488 52.0279 113.607 51.9853 113.753 51.9853C113.899 51.9853 114.017 52.0279 114.109 52.113C114.2 52.1982 114.245 52.3077 114.245 52.4415C114.245 52.5815 114.2 52.694 114.109 52.7792C114.017 52.8643 113.899 52.9069 113.753 52.9069Z" fill="#8454F5"/>
<path d="M117.342 58.464C116.922 58.464 116.551 58.3698 116.229 58.1812C115.912 57.9926 115.666 57.7249 115.49 57.3782C115.32 57.0253 115.234 56.6178 115.234 56.1554C115.234 55.6931 115.32 55.2885 115.49 54.9418C115.666 54.589 115.912 54.3183 116.229 54.1297C116.551 53.9411 116.922 53.8468 117.342 53.8468C117.761 53.8468 118.132 53.9411 118.454 54.1297C118.777 54.3183 119.023 54.589 119.193 54.9418C119.37 55.2885 119.458 55.6931 119.458 56.1554C119.458 56.6178 119.37 57.0253 119.193 57.3782C119.023 57.7249 118.777 57.9926 118.454 58.1812C118.132 58.3698 117.761 58.464 117.342 58.464ZM117.342 57.8527C117.779 57.8527 118.114 57.7097 118.345 57.4238C118.582 57.1318 118.701 56.709 118.701 56.1554C118.701 55.614 118.582 55.1973 118.345 54.9053C118.108 54.6072 117.773 54.4582 117.342 54.4582C116.91 54.4582 116.575 54.6072 116.338 54.9053C116.101 55.1973 115.982 55.614 115.982 56.1554C115.982 56.7029 116.098 57.1227 116.329 57.4147C116.566 57.7067 116.904 57.8527 117.342 57.8527Z" fill="#8454F5"/>
<path d="M122.793 53.8468C123.858 53.8468 124.39 54.4338 124.39 55.6079V58.0808C124.39 58.1964 124.356 58.2876 124.289 58.3545C124.229 58.4154 124.14 58.4458 124.025 58.4458C123.909 58.4458 123.818 58.4154 123.751 58.3545C123.684 58.2876 123.651 58.1964 123.651 58.0808V55.6535C123.651 55.2399 123.569 54.9388 123.405 54.7502C123.246 54.5616 122.991 54.4673 122.638 54.4673C122.231 54.4673 121.906 54.592 121.662 54.8414C121.419 55.0908 121.297 55.4285 121.297 55.8543V58.0808C121.297 58.1964 121.264 58.2876 121.197 58.3545C121.136 58.4154 121.048 58.4458 120.933 58.4458C120.817 58.4458 120.726 58.4154 120.659 58.3545C120.592 58.2876 120.559 58.1964 120.559 58.0808V54.23C120.559 54.1205 120.592 54.0323 120.659 53.9654C120.726 53.8985 120.817 53.865 120.933 53.865C121.042 53.865 121.127 53.8985 121.188 53.9654C121.255 54.0323 121.288 54.1175 121.288 54.2209V54.6863C121.434 54.4125 121.638 54.2057 121.899 54.0658C122.161 53.9198 122.459 53.8468 122.793 53.8468Z" fill="#8454F5"/>
</svg>
