<svg width="34" height="34" viewBox="0 0 34 34" fill="none" xmlns="http://www.w3.org/2000/svg">
<path d="M18.1 11.375C18.1 10.7675 17.6075 10.275 17 10.275C16.3925 10.275 15.9 10.7675 15.9 11.375H18.1ZM20.3472 22.0776C20.8734 22.3814 21.5461 22.2011 21.8499 21.675C22.1536 21.1489 21.9733 20.4761 21.4472 20.1724L20.3472 22.0776ZM2.81284 3.39104C2.33845 3.77055 2.26153 4.46278 2.64104 4.93716C3.02055 5.41155 3.71278 5.48847 4.18716 5.10896L2.81284 3.39104ZM7.93716 2.10896C8.41155 1.72945 8.48847 1.03722 8.10896 0.562835C7.72944 0.0884473 7.03722 0.0115337 6.56284 0.391044L7.93716 2.10896ZM29.8128 5.10896C30.2872 5.48847 30.9794 5.41155 31.359 4.93716C31.7385 4.46278 31.6616 3.77055 31.1872 3.39104L29.8128 5.10896ZM27.4372 0.391044C26.9628 0.0115337 26.2706 0.0884473 25.891 0.562835C25.5115 1.03722 25.5884 1.72945 26.0628 2.10896L27.4372 0.391044ZM19 20.0297L18.4501 20.9823L19 20.0297ZM17.268 18.7203L16.3153 19.2703L17.268 18.7203ZM15.9 11.375L15.9 16.5656L18.1 16.5656V11.375H15.9ZM21.4472 20.1724L19.55 19.0771L18.4501 20.9823L20.3472 22.0776L21.4472 20.1724ZM30.9 17.375C30.9 25.0518 24.6768 31.275 17 31.275V33.475C25.8918 33.475 33.1 26.2668 33.1 17.375H30.9ZM17 31.275C9.32324 31.275 3.1 25.0518 3.1 17.375H0.9C0.9 26.2668 8.10822 33.475 17 33.475V31.275ZM3.1 17.375C3.1 9.69824 9.32324 3.475 17 3.475V1.275C8.10822 1.275 0.9 8.48322 0.9 17.375H3.1ZM17 3.475C24.6768 3.475 30.9 9.69824 30.9 17.375H33.1C33.1 8.48322 25.8918 1.275 17 1.275V3.475ZM4.18716 5.10896L7.93716 2.10896L6.56284 0.391044L2.81284 3.39104L4.18716 5.10896ZM31.1872 3.39104L27.4372 0.391044L26.0628 2.10896L29.8128 5.10896L31.1872 3.39104ZM15.9 16.5656C15.9 17.1077 15.8988 17.5934 15.9388 17.9995C15.9812 18.4296 16.0758 18.8554 16.3153 19.2703L18.2206 18.1703C18.1922 18.1211 18.1528 18.033 18.1282 17.7836C18.1012 17.5102 18.1 17.1505 18.1 16.5656L15.9 16.5656ZM19.55 19.0771C19.0435 18.7846 18.7326 18.6037 18.5092 18.4436C18.3056 18.2976 18.249 18.2195 18.2206 18.1703L16.3153 19.2703C16.5549 19.6852 16.8763 19.98 17.2277 20.2318C17.5593 20.4695 17.9805 20.7113 18.4501 20.9823L19.55 19.0771Z" fill="#0D87E7"/>
</svg>
