<svg width="34" height="35" viewBox="0 0 34 35" fill="none" xmlns="http://www.w3.org/2000/svg">
<path d="M18.1 12.5C18.1 11.8925 17.6075 11.4 17 11.4C16.3925 11.4 15.9 11.8925 15.9 12.5H18.1ZM13.1996 22.4274C12.7829 22.8694 12.8034 23.5656 13.2454 23.9823C13.6874 24.3991 14.3836 24.3786 14.8004 23.9366L13.1996 22.4274ZM2.81284 4.14104C2.33845 4.52055 2.26153 5.21278 2.64104 5.68716C3.02055 6.16155 3.71278 6.23847 4.18716 5.85896L2.81284 4.14104ZM7.93716 2.85896C8.41155 2.47945 8.48847 1.78722 8.10896 1.31284C7.72944 0.838447 7.03722 0.761534 6.56284 1.14104L7.93716 2.85896ZM29.8128 5.85896C30.2872 6.23847 30.9794 6.16155 31.359 5.68716C31.7385 5.21278 31.6616 4.52055 31.1872 4.14104L29.8128 5.85896ZM27.4372 1.14104C26.9628 0.761534 26.2706 0.838447 25.891 1.31284C25.5115 1.78722 25.5884 2.47945 26.0628 2.85896L27.4372 1.14104ZM16.4552 20.5778L17.2556 21.3324L16.4552 20.5778ZM15.9 12.5V19.2058H18.1V12.5H15.9ZM14.8004 23.9366L17.2556 21.3324L15.6549 19.8232L13.1996 22.4274L14.8004 23.9366ZM4.18716 5.85896L7.93716 2.85896L6.56284 1.14104L2.81284 4.14104L4.18716 5.85896ZM31.1872 4.14104L27.4372 1.14104L26.0628 2.85896L29.8128 5.85896L31.1872 4.14104ZM30.9 18.5C30.9 26.1768 24.6768 32.4 17 32.4V34.6C25.8918 34.6 33.1 27.3918 33.1 18.5H30.9ZM17 32.4C9.32324 32.4 3.1 26.1768 3.1 18.5H0.9C0.9 27.3918 8.10822 34.6 17 34.6V32.4ZM3.1 18.5C3.1 10.8232 9.32324 4.6 17 4.6V2.4C8.10822 2.4 0.9 9.60821 0.9 18.5H3.1ZM17 4.6C24.6768 4.6 30.9 10.8232 30.9 18.5H33.1C33.1 9.60821 25.8918 2.4 17 2.4V4.6ZM15.9 19.2058C15.9 19.4354 15.8123 19.6562 15.6549 19.8232L17.2556 21.3324C17.7979 20.7572 18.1 19.9964 18.1 19.2058H15.9Z" fill="#6078FF"/>
</svg>
